<svg xmlns="http://www.w3.org/2000/svg" xmlns:xlink="http://www.w3.org/1999/xlink" width="50" height="50" viewBox="0 0 50 50">
  <defs>
    <clipPath id="clip-Logotipo3">
      <rect width="50" height="50"/>
    </clipPath>
  </defs>
  <g id="Logotipo3" clip-path="url(#clip-Logotipo3)">
    <rect width="50" height="50" fill="#fff"/>
    <g id="Grupo_1" data-name="Grupo 1" transform="translate(-186.853 -12.159)">
      <path id="Trazado_1" data-name="Trazado 1" d="M223.289,28.089a16.2,16.2,0,0,0-4.961-6.553,10.927,10.927,0,0,0-13.61,0,16.292,16.292,0,0,0-5.008,6.553,22.1,22.1,0,0,0-1.857,9.093,21.935,21.935,0,0,0,1.857,9.069,19.4,19.4,0,0,0,1.031,2l-.176-2.673,2.045,1.256a16.185,16.185,0,0,1-1.019-2,19.482,19.482,0,0,1-1.49-7.671,19.483,19.483,0,0,1,1.49-7.671,13.95,13.95,0,0,1,4.13-5.619,9.154,9.154,0,0,1,5.839-2.1,9.26,9.26,0,0,1,5.865,2.1,14.232,14.232,0,0,1,4.2,5.642,19.84,19.84,0,0,1,0,15.319,13.879,13.879,0,0,1-4.2,5.574,9.4,9.4,0,0,1-5.865,2.052,9.292,9.292,0,0,1-5.839-2.052c-.273-.212-.527-.444-.78-.679l.477-.312L201.5,47.13l.306,4.641,1.05-.687a14.583,14.583,0,0,0,1.86,1.7,11.134,11.134,0,0,0,6.842,2.379,10.925,10.925,0,0,0,6.792-2.379,16.315,16.315,0,0,0,4.937-6.529,22.206,22.206,0,0,0,1.832-9.069A22.373,22.373,0,0,0,223.289,28.089Z" fill="#49b9b3"/>
      <path id="Trazado_2" data-name="Trazado 2" d="M211.282,32.828l4.052,9.469h1.148l-5.2-12.152-5.2,12.152h1.148Z" transform="translate(0.147 0.225)" fill="#49b9b3" stroke="#49b9b3" stroke-width="1"/>
    </g>
  </g>
</svg>
