<svg xmlns="http://www.w3.org/2000/svg" xmlns:xlink="http://www.w3.org/1999/xlink" width="50" height="50" viewBox="0 0 50 50"><defs><clipPath id="b"><rect width="50" height="50"/></clipPath></defs><g id="a" clip-path="url(#b)"><g transform="translate(9 5)"><path d="M226.821,29.33a18.447,18.447,0,0,0-5.65-7.463,12.445,12.445,0,0,0-15.5,0,18.555,18.555,0,0,0-5.7,7.463,25.17,25.17,0,0,0-2.115,10.356,24.982,24.982,0,0,0,2.115,10.329,22.091,22.091,0,0,0,1.174,2.277l-.2-3.044,2.329,1.431A18.433,18.433,0,0,1,202.11,48.4a22.188,22.188,0,0,1-1.7-8.736,22.189,22.189,0,0,1,1.7-8.737,15.888,15.888,0,0,1,4.7-6.4,10.426,10.426,0,0,1,6.65-2.389,10.546,10.546,0,0,1,6.679,2.389,16.208,16.208,0,0,1,4.786,6.426,21.7,21.7,0,0,1,1.752,8.737,21.511,21.511,0,0,1-1.752,8.709,15.807,15.807,0,0,1-4.786,6.348,10.705,10.705,0,0,1-6.679,2.337,10.583,10.583,0,0,1-6.65-2.337c-.311-.241-.6-.506-.888-.773l.543-.356-4.459-2.6.348,5.285,1.2-.782a16.609,16.609,0,0,0,2.118,1.932,12.68,12.68,0,0,0,7.793,2.709A12.443,12.443,0,0,0,221.2,57.45a18.581,18.581,0,0,0,5.622-7.435,25.29,25.29,0,0,0,2.087-10.329A25.48,25.48,0,0,0,226.821,29.33Z" transform="translate(-197.853 -19.159)" fill="#49b9b3"/><path d="M212,33.2l4.615,10.784h1.308L212,30.145l-5.922,13.84h1.308Z" transform="translate(-196.543 -17.377)" fill="#49b9b3" stroke="#49b9b3" stroke-width="1"/></g></g></svg>