<svg xmlns="http://www.w3.org/2000/svg" xmlns:xlink="http://www.w3.org/1999/xlink" width="50" height="50" viewBox="0 0 50 50">
  <defs>
    <clipPath id="clip-Logotipo1">
      <rect width="50" height="50"/>
    </clipPath>
  </defs>
  <g id="Logotipo1" clip-path="url(#clip-Logotipo1)">
    <g id="reciclapp-02" transform="translate(-39.7 -4.94)">
      <g id="Grupo_4" data-name="Grupo 4" transform="translate(46.7 24.268)">
        <path id="Trazado_19" data-name="Trazado 19" d="M77.662,164.514a17.611,17.611,0,0,0-1.69-4.1,54.823,54.823,0,0,0,3.117-5.235.954.954,0,0,0-.571-1.394,17.5,17.5,0,0,0-4.215-.2c-1.207.121-1.218,2.019,0,1.9a15.187,15.187,0,0,1,2.448-.011c-.6,1.087-1.218,2.162-1.9,3.2A26.4,26.4,0,0,0,64.008,150.5a28.823,28.823,0,0,0-3.1-1.152c.011-.011.011-.033.022-.044l-1.635-.7a23.039,23.039,0,0,0-1.229,4.149c-.2-.011-.406-.033-.6-.033a10.8,10.8,0,1,0,4.84,1.163l-.4.79-.406.8a8.977,8.977,0,1,1-4.039-.966c.077,0,.143.011.22.011a62.194,62.194,0,0,0-1.109,8.945.886.886,0,0,0,.856.922h.033a.893.893,0,0,0,.889-.856c0-.033.033-.834.143-2.085a61.905,61.905,0,0,1,.955-6.706c.055-.285.121-.582.187-.867s.132-.571.2-.867c.154-.659.329-1.306.527-1.954.165.055.362.11.571.187.6.2,1.383.483,2.272.867,4.149,1.767,10.635,5.576,12.677,12.666.077.285.165.571.23.856s.121.593.165.889a16.814,16.814,0,0,1,.209,1.855c.022.34.033.67.033,1.021a.889.889,0,1,0,1.778,0,19.032,19.032,0,0,0-.241-3.029,3.1,3.1,0,1,1-3.754,3.029,3.05,3.05,0,0,1,1.021-2.283l-.6-.67-.593-.659a4.832,4.832,0,0,0-1.6,3.611,4.884,4.884,0,1,0,5.137-4.873Z" transform="translate(-46.7 -148.6)" fill="#62a50a"/>
      </g>
      <path id="Trazado_20" data-name="Trazado 20" d="M139.992,9.045a9.171,9.171,0,0,0-5.071,7.452,5.724,5.724,0,0,0,1.646,5.06,4.823,4.823,0,0,0,2.019,1.021,19.631,19.631,0,0,0-1.2,2.81.972.972,0,1,0,1.844.615,17.01,17.01,0,0,1,1.119-2.612,4.66,4.66,0,0,0,4.884-.351,9.149,9.149,0,0,0,3.468-10.295.976.976,0,0,0-.735-.659,8.823,8.823,0,0,0-4.215.187,8.876,8.876,0,0,0-2.8-3.161.926.926,0,0,0-.966-.066Zm1.361,12.666a21.35,21.35,0,0,1,2.788-3.358.97.97,0,0,0-1.361-1.383,23.762,23.762,0,0,0-2.832,3.369,2.8,2.8,0,0,1,.044-2.634,7.055,7.055,0,0,1,7.035-3.787,7.208,7.208,0,0,1-2.887,7.529A2.745,2.745,0,0,1,141.353,21.711Zm-4.434-3.337a7.2,7.2,0,0,1,3.413-7.31,6.956,6.956,0,0,1,1.624,1.954c-2.459,1.339-4.763,4.193-4.171,7.024a2.749,2.749,0,0,1-.867-1.668Z" transform="translate(-78.508)" fill="#62a50a"/>
    </g>
  </g>
</svg>
