<svg xmlns="http://www.w3.org/2000/svg" xmlns:xlink="http://www.w3.org/1999/xlink" width="50" height="50" viewBox="0 0 50 50"><defs><linearGradient id="a" x1="0.5" x2="0.5" y2="1" gradientUnits="objectBoundingBox"><stop offset="0" stop-color="#fff"/><stop offset="1" stop-color="gray"/></linearGradient><clipPath id="c"><rect width="50" height="50"/></clipPath></defs><g id="b" clip-path="url(#c)"><g transform="translate(5 5)"><g transform="translate(0 0)"><path d="M81.5,36.838a20.5,20.5,0,0,0-35.443-14.03l1.794,2.984a16.847,16.847,0,0,0-1.209,1.64l-3.4-.841a20.352,20.352,0,0,0-2.132,5.261l3.108,1.735c-.056.317-.111.639-.143.963s-.068.648-.09.97l-3.485.963v.353a20.5,20.5,0,0,0,.68,5.248l3.7-.011a16.968,16.968,0,0,0,.786,1.878l-2.665,2.7a20.521,20.521,0,0,0,3.326,4.5L49.7,49.232a16.937,16.937,0,0,0,1.768,1.356l-.98,3.852a20.342,20.342,0,0,0,5.1,2.17L57.635,53.1q.567.111,1.151.178t1.162.1l1.171,3.957a20.553,20.553,0,0,0,5.455-.763l-.04-4.178a16.966,16.966,0,0,0,2.04-.9l3.043,2.883A20.485,20.485,0,0,0,81.5,36.838Zm-20.5,11.353A11.354,11.354,0,1,1,72.361,36.837,11.354,11.354,0,0,1,61.007,48.191Z" transform="translate(-40.505 -16.339)" fill="url(#a)"/><path d="M126.73,89.143a9.556,9.556,0,1,0-1.614,13.42A9.555,9.555,0,0,0,126.73,89.143Zm-7.517,14.337a8.435,8.435,0,1,1,8.435-8.435,8.434,8.434,0,0,1-8.435,8.435Z" transform="translate(-98.713 -74.547)" fill="#a4a1a1"/><path d="M116.033,81.72a10.151,10.151,0,1,0,10.148,10.15A10.151,10.151,0,0,0,116.033,81.72Zm0,19.986a9.836,9.836,0,1,1,9.835-9.836,9.837,9.837,0,0,1-9.835,9.836Z" transform="translate(-95.533 -71.369)" fill="#d6d2d2" stroke="#d6d2d2" stroke-width="1"/></g></g></g></svg>