<svg id="Capa_3" data-name="Capa 3" xmlns="http://www.w3.org/2000/svg" viewBox="0 0 301.67 81.5"><defs><style>.cls-1{fill:#00b389;}</style></defs><title>logotipo</title><path class="cls-1" d="M133.2,39.38a26.41,26.41,0,0,0-3.07-11.7,22.58,22.58,0,0,0-8.56-8.88,25.44,25.44,0,0,0-24.67,0,22.73,22.73,0,0,0-8.65,8.93,26.48,26.48,0,0,0-3.15,13,25.7,25.7,0,0,0,3.29,13,23.25,23.25,0,0,0,9.17,9A27.33,27.33,0,0,0,111,65.89a27.8,27.8,0,0,0,10.86-2.07,21.43,21.43,0,0,0,7.57-5.26l.39-.45s0,0,0,0a2.48,2.48,0,0,0,.18-.31,2.84,2.84,0,0,0,.31-1.31,2.88,2.88,0,0,0-2.87-2.88,3.13,3.13,0,0,0-1.83.65l0,0a3,3,0,0,1-.31.31s0,0,0,0a18.41,18.41,0,0,1-5.6,3.71A21.1,21.1,0,0,1,111.23,60,19.7,19.7,0,0,1,97.7,55.23a17.7,17.7,0,0,1-5.93-12.47h38A3.38,3.38,0,0,0,133.2,39.38Zm-6.36-1.59H91.77a18,18,0,0,1,5.5-11.9,18.16,18.16,0,0,1,24.07,0,17.94,17.94,0,0,1,5.5,11.88Z"/><path class="cls-1" d="M190.45,42.12a26.41,26.41,0,0,0,3.07,11.7,22.58,22.58,0,0,0,8.56,8.88,25.44,25.44,0,0,0,24.67,0,22.73,22.73,0,0,0,8.65-8.93,26.48,26.48,0,0,0,3.15-13,25.7,25.7,0,0,0-3.29-13,23.25,23.25,0,0,0-9.17-9,27.33,27.33,0,0,0-13.48-3.25,27.8,27.8,0,0,0-10.86,2.07,21.43,21.43,0,0,0-7.57,5.26l-.39.45s0,.05,0,.05a2.48,2.48,0,0,0-.18.31,2.84,2.84,0,0,0-.31,1.31,2.88,2.88,0,0,0,2.87,2.88,3.13,3.13,0,0,0,1.83-.65l0,0a3,3,0,0,1,.31-.31s0,0,.05-.05a18.41,18.41,0,0,1,5.6-3.71,21.1,21.1,0,0,1,8.46-1.64A19.7,19.7,0,0,1,226,26.27a17.7,17.7,0,0,1,5.93,12.47h-38A3.38,3.38,0,0,0,190.45,42.12Zm6.36,1.59h35.07a18,18,0,0,1-5.5,11.9,18.16,18.16,0,0,1-24.07,0,17.94,17.94,0,0,1-5.5-11.88Z"/><path class="cls-1" d="M148.81,30.64a20.71,20.71,0,0,0-2.4,10,20.71,20.71,0,0,0,2.4,10.12,16.89,16.89,0,0,0,6.67,6.76A19.32,19.32,0,0,0,165.11,60a19,19,0,0,0,8.18-1.77A15,15,0,0,0,178.56,54l0,0a3.25,3.25,0,0,1,2.34-1.09,3,3,0,0,1,3,2.89.91.91,0,0,1,0,.17,3.11,3.11,0,0,1-.46,1.61c-.12.16-.24.33-.39.51l0,0a18.72,18.72,0,0,1-6.6,5.32,25.52,25.52,0,0,1-11.38,2.49A26.65,26.65,0,0,1,152,62.69a23.1,23.1,0,0,1-9.07-9,25.84,25.84,0,0,1-3.29-13,25.62,25.62,0,0,1,3.29-13A23.17,23.17,0,0,1,152,18.8a26.65,26.65,0,0,1,13.11-3.19,25.39,25.39,0,0,1,11.42,2.49,18.73,18.73,0,0,1,6.68,5.45,2.69,2.69,0,0,1,.26.33s0,0,0,0a3,3,0,0,1,.52,1.69.53.53,0,0,1,0,.13,3,3,0,0,1-3,2.93,2.77,2.77,0,0,1-1-.18,2.91,2.91,0,0,1-1.35-.94,15.17,15.17,0,0,0-5.3-4.26,18.44,18.44,0,0,0-8.18-1.83,19.43,19.43,0,0,0-9.63,2.39A16.85,16.85,0,0,0,148.81,30.64Z"/><path class="cls-1" d="M84.87,18.67a2.88,2.88,0,0,1-.24,1.17L64.16,63.56l0,.1a3.77,3.77,0,0,1-3.44,2.23,3.73,3.73,0,0,1-3.42-2.23.31.31,0,0,1,0-.12L37,20.33h0l-.25-.56s0,0,0,0a3.31,3.31,0,0,1-.14-.95,3.2,3.2,0,0,1,5.48-2.23,3.16,3.16,0,0,1,.61.91.77.77,0,0,1,.07.16l18.05,41L79.05,17.6a2.17,2.17,0,0,1,.19-.41,2.85,2.85,0,0,1,.46-.62,3,3,0,0,1,5.17,2.1Z"/><path class="cls-1" d="M31.76,53.37a2.88,2.88,0,0,1-1.17-.24L12.48,44.36l-.1,0a3.77,3.77,0,0,1-2.23-3.44,3.73,3.73,0,0,1,2.23-3.42.31.31,0,0,1,.12-.05L30,29h0l.56-.25s0,0,0,0a3.31,3.31,0,0,1,.95-.14,3.2,3.2,0,0,1,2.23,5.48,3.16,3.16,0,0,1-.91.61l-.16.07L17.36,41l15.47,6.53a2.17,2.17,0,0,1,.41.19,2.85,2.85,0,0,1,.62.46,3,3,0,0,1-2.1,5.17Z"/><path class="cls-1" d="M269.91,28.63a2.88,2.88,0,0,1,1.17.24l18.11,8.77.1,0a3.77,3.77,0,0,1,2.23,3.44,3.73,3.73,0,0,1-2.23,3.42.31.31,0,0,1-.12.05L271.66,53h0l-.56.25h0a3.31,3.31,0,0,1-.95.14,3.2,3.2,0,0,1-2.23-5.48,3.16,3.16,0,0,1,.91-.61l.16-.07L284.31,41l-15.47-6.53a2.17,2.17,0,0,1-.41-.19,2.85,2.85,0,0,1-.62-.46,3,3,0,0,1,2.1-5.17Z"/><path class="cls-1" d="M270.37,7.67a3,3,0,0,0-5.17-2.1,2.85,2.85,0,0,0-.46.62,2.17,2.17,0,0,0-.19.41l-2.95,6.64L234.21,72.66a2.88,2.88,0,0,0-.24,1.17,3,3,0,0,0,5.17,2.1,2.85,2.85,0,0,0,.46-.62,2.17,2.17,0,0,0,.19-.41L248.27,56,270.13,8.84A2.88,2.88,0,0,0,270.37,7.67Z"/></svg>