<svg xmlns="http://www.w3.org/2000/svg" xmlns:xlink="http://www.w3.org/1999/xlink" width="50" height="50" viewBox="0 0 50 50"><defs><clipPath id="b"><rect width="50" height="50"/></clipPath></defs><g id="a" clip-path="url(#b)"><g transform="translate(6 4)"><path d="M124.47,108.779H113.21V108h10.847A5.922,5.922,0,0,0,124.47,108.779Z" transform="translate(-110.173 -103.217)" fill="#62a50a"/><path d="M4.555.779H0V0H4.555V.778Z" transform="translate(9.87 28.202)" fill="#62a50a" stroke="rgba(0,0,0,0)" stroke-width="1"/><path d="M200.141,129.133v12.205a2.22,2.22,0,0,0-.781,0V128.98A3.72,3.72,0,0,0,200.141,129.133Z" transform="translate(-181.799 -120.66)" fill="#62a50a"/><path d="M234.83,108v.779H225a6.783,6.783,0,0,1,.536-.779Z" transform="translate(-203.117 -103.217)" fill="#62a50a"/><path d="M188.51,108a6.779,6.779,0,0,0-.536.779h-6.221a5.919,5.919,0,0,1-.413-.779Z" transform="translate(-166.817 -103.217)" fill="#62a50a"/><rect width="0.007" height="0.004" transform="translate(14.901 23.492)" fill="#62a50a"/><path d="M193.233,207.7v10.115h-.759V207.788h0c0-.02,0-.04,0-.062a1.517,1.517,0,0,0-3.035.01c0,.017,0,.034,0,.052h0v10.031h-.759V207.7h0a2.274,2.274,0,0,1,4.548,0Z" transform="translate(-172.921 -184.243)" fill="#62a50a"/><path d="M199.323,215.6h0c0-.008,0-.015,0-.023a.758.758,0,0,0-1.516.023h0v16.69h0s0,.006,0,.009a.758.758,0,0,0,1.515-.009h0Z" transform="translate(-180.507 -192.04)" fill="#62a50a"/><path d="M200.787,90.351a6.052,6.052,0,0,0-1.826.743,5.4,5.4,0,0,0-1.446,1.266,6.787,6.787,0,0,0-.536.779c-.16.268-.315.56-.472.88a.2.2,0,0,0-.008.019c-.02.039-.04.079-.059.12a2.27,2.27,0,0,1-4.267-1.018,2.345,2.345,0,0,1,.051-.57c.012-.052.025-.1.042-.157l.015-.052a3.828,3.828,0,0,1,1.194-1.87c.059-.052.121-.1.184-.148a.914.914,0,0,1,.083-.059c.078-.054.157-.108.238-.158A.2.2,0,0,1,194,90.11a6.075,6.075,0,0,1,6.784.241Z" transform="translate(-175.823 -87.578)" fill="#62a50a"/><path d="M185.163,85.124v.067a2.26,2.26,0,0,1-.187.88c0,.005-.005.012-.008.019-.02.039-.04.079-.059.12a2.3,2.3,0,0,1-2,1.237c-.054,0-.108,0-.164,0a3.832,3.832,0,0,1-2.337-.877.92.92,0,0,1-.076-.066c-.071-.062-.142-.128-.209-.2a.232.232,0,0,1-.02-.02,6.039,6.039,0,0,1-.878-1.094,5.922,5.922,0,0,1-.413-.779,6.091,6.091,0,0,1-.046-4.783,6.044,6.044,0,0,0,1.146,1.6,5.447,5.447,0,0,0,2.028,1.308,10.38,10.38,0,0,0,1.536.435,2.294,2.294,0,0,1,1.553,1.435A2.209,2.209,0,0,1,185.163,85.124Z" transform="translate(-164.291 -79.63)" fill="#62a50a"/><path d="M4.555.779H0V0H4.555V.778Z" transform="translate(21.259 28.202)" fill="#62a50a" stroke="rgba(0,0,0,0)" stroke-width="1"/><path d="M0,0H37.963l-4,28.363H4Z" transform="translate(0 9.98)" fill="#62a50a" opacity="0.33"/></g></g></svg>